<svg id="Layer_1" data-name="Layer 1" xmlns="http://www.w3.org/2000/svg" viewBox="0 0 20 20"><defs><style>.cls-1{fill:none;stroke:#ddd;stroke-miterlimit:10;}.cls-2{fill:#ddd;}</style></defs><rect class="cls-1" x="0.5" y="0.5" width="19" height="19"/><path class="cls-2" d="M15,4.21a1.2,1.2,0,0,0-1.64.43L8.57,12.81,5.88,10a1.2,1.2,0,0,0-1.7,0,1.19,1.19,0,0,0,0,1.69l3.79,4a1,1,0,0,0,.13.09.81.81,0,0,0,.14.12l.09,0,.1,0A1.15,1.15,0,0,0,8.8,16h0a1.34,1.34,0,0,0,.39-.07l.09,0a1.15,1.15,0,0,0,.33-.21h0a1.09,1.09,0,0,0,.21-.26L15.4,5.85A1.2,1.2,0,0,0,15,4.21Z"/></svg>