<svg xmlns="http://www.w3.org/2000/svg" width="42" height="42" viewBox="0 0 42 42">
  <g id="faq_icon" transform="translate(-265 -4554)">
    <rect id="사각형_39" data-name="사각형 39" width="42" height="42" transform="translate(265 4554)" fill="none"/>
    <g id="icoChatbotChatD" transform="translate(265 4557)">
      <path id="패스_19" data-name="패스 19" d="M25.587,23.775l-.019-.006a1.044,1.044,0,0,0-1.162.23c-.075.075.049-.052-.076.072a8.076,8.076,0,0,1-2.606,1.75,7.94,7.94,0,0,1-3.056.606H16.235v0a1.041,1.041,0,0,0-.747.316L10.23,32.122l.046-4.627a1.045,1.045,0,0,0-.931-1.109l-.025,0a7.94,7.94,0,0,1-2.791-.831A8.147,8.147,0,0,1,2.676,21.27a8.014,8.014,0,0,1,.081-5.916A8.132,8.132,0,0,1,7.111,11a7.938,7.938,0,0,1,3.056-.606h.716v-.005a1.074,1.074,0,0,0-.027-2.146h-.689a10.088,10.088,0,0,0-3.879.775A10.229,10.229,0,0,0,.775,14.533a10.078,10.078,0,0,0-.1,7.5,10.21,10.21,0,0,0,7.451,6.331l-.045,4.449a1.862,1.862,0,0,0,.677,1.453,1.887,1.887,0,0,0,1.55.384,1.823,1.823,0,0,0,.519-.187v0h0a1.88,1.88,0,0,0,.439-.332L16.7,28.578H18.67a10.053,10.053,0,0,0,3.877-.775,10.228,10.228,0,0,0,3.3-2.211l0,0,.112-.112a1.041,1.041,0,0,0-.372-1.7m1.345-2.326a1.112,1.112,0,1,0,1.112,1.112,1.112,1.112,0,0,0-1.112-1.112" transform="translate(0 2.059)" fill="#282828" fill-rule="evenodd"/>
      <path id="패스_20" data-name="패스 20" d="M36.537,2.841A9.013,9.013,0,0,0,30.011,0H20.241a9.015,9.015,0,0,0-6.527,2.841,9.93,9.93,0,0,0,0,13.65,9.013,9.013,0,0,0,6.527,2.841h3.283l6.445,6.892L29.9,19.4l1.082-.12a9.128,9.128,0,0,0,5.894-3.164,9.94,9.94,0,0,0-.344-13.275" transform="translate(2.746)" fill="#282828" fill-rule="evenodd"/>
      <circle id="타원_3" data-name="타원 3" cx="1.25" cy="1.25" r="1.25" transform="translate(20.846 8.706)" fill="#fff"/>
      <circle id="타원_4" data-name="타원 4" cx="1.25" cy="1.25" r="1.25" transform="translate(27.329 8.706)" fill="#fff"/>
      <circle id="타원_5" data-name="타원 5" cx="1.25" cy="1.25" r="1.25" transform="translate(33.812 8.706)" fill="#fff"/>
    </g>
  </g>
</svg>
