<svg xmlns="http://www.w3.org/2000/svg" width="52.401" height="58.361" viewBox="0 0 52.401 58.361">
  <g id="icon" transform="translate(0 0.005)">
    <g id="그룹_22" data-name="그룹 22" transform="translate(0 -0.005)">
      <path id="패스_22" data-name="패스 22" d="M49.192,31.337V24.166L26.2,3.757,3.209,24.166V55.147H44.3a1.6,1.6,0,0,1,0,3.209H1.6a1.609,1.609,0,0,1-1.6-1.6V23.444a1.573,1.573,0,0,1,.546-1.2L25.125.4a1.6,1.6,0,0,1,2.134,0l24.6,21.836a1.629,1.629,0,0,1,.546,1.2V50.286a1.6,1.6,0,0,1-3.209,0V31.353" transform="translate(0 0.005)" fill="#bfbfbf"/>
      <path id="패스_23" data-name="패스 23" d="M30.017,38.984a1.609,1.609,0,0,1-1.6-1.6V22.009h-15.8v15.37a1.6,1.6,0,0,1-3.209,0V20.4A1.609,1.609,0,0,1,11,18.8H30.017a1.609,1.609,0,0,1,1.6,1.6V37.379A1.609,1.609,0,0,1,30.017,38.984Z" transform="translate(5.682 11.371)" fill="#bfbfbf"/>
    </g>
  </g>
</svg>
