<svg width="188" height="42" viewBox="0 0 188 42" xmlns="http://www.w3.org/2000/svg" xmlns:xlink="http://www.w3.org/1999/xlink">
    <defs>
        <path id="c1gxta1t9a" d="M0 0h30.809v17.053H0z"/>
    </defs>
    <g fill="none" fill-rule="evenodd">
        <path d="M66.744 8.504v8.4h-3.36V9.55c0-1.023-.204-1.317-.773-1.317-.544 0-1.089.294-1.952.93v7.743H57.3V1.01h3.36l.022 3.883c0 .794-.09 1.544-.18 2.18 1.18-1.09 2.43-1.68 3.587-1.68 1.726 0 2.656 1.09 2.656 3.11M74.123 13.885v-1.884h-1.908c-.567.022-.771.43-.771 1.067v.43c0 .796.273 1.159.886 1.159.522 0 1.18-.272 1.793-.772m3.338-4.383v7.403h-2.656l-.295-1.499c-.613.863-1.658 1.771-3.27 1.771-1.704 0-3.088-1.134-3.088-3.224v-1.135c0-1.794 1.112-2.838 2.929-2.838h3.042v-.5c-.022-1.134-.317-1.453-1.271-1.453-.909 0-2.408.07-3.905.182l-.318-2.27c1.361-.296 3.677-.546 5.018-.546 2.473 0 3.814.954 3.814 4.11M88.745 8.504v8.4h-3.36V9.55c0-1.023-.204-1.317-.773-1.317-.544 0-1.089.34-1.997.976l.022 7.697h-3.36V5.712h2.656l.319 1.657c1.202-1.272 2.564-1.975 3.836-1.975 1.727 0 2.657 1.09 2.657 3.11M96.805 11.41c0-2.701-.341-3.36-1.18-3.36-.704 0-1.136.41-1.726 1.09v5.154c.5.204.93.408 1.611.408.954 0 1.295-.5 1.295-3.292m3.45 0c0 4.45-1.18 5.79-3.472 5.79-1.113 0-2.158-.273-2.93-.953.046.748.068 1.498.046 2.27v2.702h-3.337V5.711h2.701l.25 1.636c.613-1.113 2.043-1.93 3.518-1.93 2.317 0 3.225 2.201 3.225 5.993M107.363 13.885v-1.884h-1.908c-.567.022-.772.43-.772 1.067v.43c0 .796.272 1.159.887 1.159.521 0 1.18-.272 1.793-.772m3.337-4.383v7.403h-2.655l-.296-1.499c-.613.863-1.658 1.771-3.27 1.771-1.703 0-3.088-1.134-3.088-3.224v-1.135c0-1.794 1.113-2.838 2.93-2.838h3.042v-.5c-.022-1.134-.318-1.453-1.272-1.453-.908 0-2.407.07-3.905.182l-.319-2.27c1.363-.296 3.679-.546 5.02-.546 2.473 0 3.813.954 3.813 4.11M120.736 5.825l-.228 2.157a186.47 186.47 0 0 0-3.564-.045c-1.317 0-1.543 0-1.543.75 0 .68.25.702 1.112.997l2.226.773c1.588.544 2.36 1.317 2.36 3.269 0 2.77-1.25 3.429-4.337 3.429-.794 0-2.565-.024-4.473-.387l.228-2.18c.544.046 1.952.046 3.201.046 1.793 0 2.134-.113 2.134-.84 0-.68-.317-.726-1.225-1.044l-2.158-.75c-1.884-.612-2.316-1.634-2.316-3.405 0-2.338 1.023-3.202 4.087-3.202 1.408.023 3.338.182 4.496.432M130.726 5.825l-.228 2.157a186.308 186.308 0 0 0-3.564-.045c-1.317 0-1.543 0-1.543.75 0 .68.25.702 1.112.997l2.225.773c1.589.544 2.36 1.317 2.36 3.269 0 2.77-1.249 3.429-4.337 3.429-.793 0-2.564-.024-4.472-.387l.228-2.18c.544.046 1.952.046 3.201.046 1.793 0 2.134-.113 2.134-.84 0-.68-.317-.726-1.226-1.044L124.46 12c-1.884-.612-2.316-1.634-2.316-3.405 0-2.338 1.023-3.202 4.087-3.202 1.408.023 3.337.182 4.496.432" fill="#1D1D1B"/>
        <g transform="translate(0 .5)">
            <mask id="9c5lxnnsrb" fill="#fff">
                <use xlink:href="#c1gxta1t9a"/>
            </mask>
            <path d="M.049 11.363C.657 5.133 8.829 0 16.758 0c5.772 0 10.76 1.529 14.026 6 .085.116-.067.254-.179.162-2.2-1.83-5.236-2.587-7.213-2.461-1.192.075-6.878-.106-9.062 7.096-1.13 3.723-4.314 6.256-8.214 6.256-3.899 0-6.51-2.535-6.067-5.69" fill="#E31D2D" mask="url(#9c5lxnnsrb)"/>
        </g>
        <path d="M50.484 6.917c-.264 6.254-8.14 11.83-16.057 12.266-5.762.32-10.827-.933-14.336-5.217-.09-.11.054-.256.17-.171 2.297 1.705 5.371 2.294 7.339 2.06 1.184-.141 6.871-.275 8.656-7.585.921-3.78 3.962-6.486 7.856-6.7 3.892-.216 6.64 2.172 6.372 5.347" fill="#587FBB"/>
        <path d="M117.878 28.992v12.565h-4.323V30.256c-.034-1.707-.29-2.39-1.452-2.39-1.016 0-1.598.546-3.27 1.945v11.746h-4.177V30.256c0-1.81-.473-2.39-1.49-2.39-.944 0-1.561.443-3.232 1.879v11.812h-4.359v-16.73h3.523l.29 2.459c1.78-1.947 3.452-2.937 5.449-2.937 1.963 0 3.234.922 3.742 2.698 1.744-1.845 3.378-2.698 5.268-2.698 2.651 0 4.031 1.639 4.031 4.643M125.356 33.192c0 4.301.582 5.497 2.833 5.497 2.252 0 2.834-1.196 2.834-5.497 0-4.337-.582-5.533-2.834-5.533-2.251 0-2.833 1.196-2.833 5.533m10.244 0c0 6.42-2.033 8.808-7.447 8.808-5.377 0-7.41-2.389-7.41-8.808 0-6.419 2.033-8.844 7.41-8.844 5.414 0 7.447 2.425 7.447 8.844M148.421 33.09c0-3.962-.327-5.259-2.543-5.259-1.126 0-1.998.717-3.015 1.775l.036 8.707a9.738 9.738 0 0 0 2.871.342c1.961-.034 2.651-1.332 2.651-5.566m4.541 0c0 5.36-1.309 8.877-7.084 8.877-2.072 0-5.595-.408-7.376-1.261V17.657h4.397l.036 5.633c0 1.366-.11 2.561-.437 3.756 1.418-1.741 3.234-2.697 5.123-2.697 3.633 0 5.341 2.49 5.341 8.74M156.046 41.556h4.358v-16.73h-4.358v16.73zm3.16-24.003c.836 0 1.272.446 1.272 1.196v1.877c0 .785-.436 1.196-1.272 1.196h-1.998c-.835 0-1.236-.411-1.236-1.196V18.75c0-.75.401-1.196 1.236-1.196h1.998zM168.503 36.367c0 1.298.545 1.913 1.6 1.913h1.124l.51 3.072c-.726.375-2.545.581-3.415.581-2.58 0-4.177-1.639-4.177-4.576v-19.7h4.394l-.036 18.71zM177.692 32.03h4.142c1.053 0 1.089-1.059 1.089-1.945.038-1.775-.435-2.46-2.324-2.46-2.18 0-2.833.889-2.907 4.406m8.826 6.145.365 2.664c-1.707.853-4.287 1.127-6.284 1.127-5.45 0-7.483-2.425-7.483-8.81 0-6.623 2.18-8.809 7.3-8.809 4.977 0 6.868 2.016 6.868 5.805 0 3.004-1.31 4.782-4.215 4.782h-5.303c.218 3.037 1.16 3.617 3.377 3.617 1.272 0 3.414-.137 5.375-.376" fill="#1D1D1B"/>
    </g>
</svg>
