<svg id="Layer_1" xmlns="http://www.w3.org/2000/svg" width="30" height="25.99" viewBox="0 0 30 25.99">
  <g id="그룹_30" data-name="그룹 30">
    <path id="패스_37" data-name="패스 37" d="M30,14.5a4.885,4.885,0,0,0-4.46-4.86,10.582,10.582,0,0,0-21.08,0A4.889,4.889,0,0,0,4.9,19.4H6.45V9.81a8.577,8.577,0,0,1,17.12.77V23.07H18.36a1.916,1.916,0,0,0-1.63-.92H13.24a1.92,1.92,0,1,0,0,3.84h3.49a1.9,1.9,0,0,0,1.63-.92h7.21V19.35a4.885,4.885,0,0,0,4.42-4.85Z" fill="#fff"/>
    <circle id="타원_16" data-name="타원 16" cx="1.5" cy="1.5" r="1.5" transform="translate(13.5 13)" fill="#fff"/>
    <circle id="타원_17" data-name="타원 17" cx="1.5" cy="1.5" r="1.5" transform="translate(9 13)" fill="#fff"/>
    <path id="패스_38" data-name="패스 38" d="M19.5,16A1.5,1.5,0,1,0,18,14.5,1.5,1.5,0,0,0,19.5,16Z" fill="#fff"/>
  </g>
</svg>
