<svg xmlns="http://www.w3.org/2000/svg" width="60" height="52.497" viewBox="0 0 60 52.497">
  <g id="icoChatbotChatD" transform="translate(0)">
    <path id="패스_19" data-name="패스 19" d="M36.553,30.431l-.027-.009a1.491,1.491,0,0,0-1.66.329c-.107.107.07-.075-.109.1a11.537,11.537,0,0,1-3.722,2.5,11.342,11.342,0,0,1-4.365.866H23.193v0a1.487,1.487,0,0,0-1.068.452l-7.511,7.68.066-6.609a1.493,1.493,0,0,0-1.33-1.584l-.036,0a11.342,11.342,0,0,1-3.987-1.187,11.638,11.638,0,0,1-5.506-6.118A11.448,11.448,0,0,1,3.938,18.4a11.618,11.618,0,0,1,6.22-6.22,11.341,11.341,0,0,1,4.365-.866h1.023v-.007a1.534,1.534,0,0,0-.039-3.065h-.984A14.412,14.412,0,0,0,8.982,9.35a14.613,14.613,0,0,0-7.875,7.879A14.4,14.4,0,0,0,.966,27.948,14.586,14.586,0,0,0,11.61,36.992l-.064,6.356a2.66,2.66,0,0,0,.968,2.076,2.7,2.7,0,0,0,2.214.548,2.6,2.6,0,0,0,.741-.268l0-.005,0,0a2.685,2.685,0,0,0,.627-.475l7.756-7.931h2.821a14.361,14.361,0,0,0,5.538-1.107,14.611,14.611,0,0,0,4.719-3.158l0,0,.161-.161a1.487,1.487,0,0,0-.532-2.428m1.921-3.323A1.589,1.589,0,1,0,40.063,28.7a1.589,1.589,0,0,0-1.589-1.589" transform="translate(0 6.474)" fill="#bfbfbf" fill-rule="evenodd"/>
    <path id="패스_20" data-name="패스 20" d="M47.482,4.058A12.875,12.875,0,0,0,38.159,0H24.2a12.879,12.879,0,0,0-9.325,4.058,14.186,14.186,0,0,0,0,19.5A12.876,12.876,0,0,0,24.2,27.616h4.69L38.1,37.462l-.093-9.748,1.546-.171a13.04,13.04,0,0,0,8.42-4.52,14.2,14.2,0,0,0-.491-18.964" transform="translate(8.636 0)" fill="#bfbfbf" fill-rule="evenodd"/>
    <circle id="타원_3" data-name="타원 3" cx="1.785" cy="1.785" r="1.785" transform="translate(29.779 12.437)" fill="#fff"/>
    <circle id="타원_4" data-name="타원 4" cx="1.785" cy="1.785" r="1.785" transform="translate(39.042 12.437)" fill="#fff"/>
    <circle id="타원_5" data-name="타원 5" cx="1.785" cy="1.785" r="1.785" transform="translate(48.302 12.437)" fill="#fff"/>
  </g>
</svg>
