<svg id="icon" xmlns="http://www.w3.org/2000/svg" width="23.272" height="24" viewBox="0 0 23.272 24">
  <path id="패스_24" data-name="패스 24" d="M20.1,24H1.314A1.315,1.315,0,0,1,0,22.686V21.117c0-3.851,2.65-7.274,6.719-8.858A7.037,7.037,0,0,1,4.527,7.117a7.109,7.109,0,1,1,12.026,5.135c4.076,1.591,6.719,5.015,6.719,8.858a.751.751,0,0,1-1.5,0c0-3.528-2.875-6.764-7-7.867a.75.75,0,0,1-.2-1.366,5.608,5.608,0,1,0-5.885,0,.765.765,0,0,1,.353.751.739.739,0,0,1-.548.616c-4.114,1.1-7,4.339-7,7.867v1.381H20.1a.751.751,0,1,1,0,1.5Z" fill="#bfbfbf"/>
</svg>
