<svg xmlns="http://www.w3.org/2000/svg" width="58.336" height="53.116" viewBox="0 0 58.336 53.116">
  <g id="iconsLineIcoContact2FillG64" transform="translate(0.018 -0.485)">
    <path id="패스_21" data-name="패스 21" d="M10.668,1.172a5.087,5.087,0,0,1,4.253,2.257c2.113,3.18,3.951,6.046,5.322,8.186a7.274,7.274,0,0,1,1.219,4.011,3.326,3.326,0,0,1-.82,2.4c-.659.632-1.86,1.575-2.1,1.759-.146.117-.677.531-1.242.943.069.511.166,1.062.291,1.661.865,4.146,2.039,5.535,4.462,8.269a36.277,36.277,0,0,0,6.033,4.818,4.03,4.03,0,0,0,2.452.82,2.884,2.884,0,0,0,1.416-.294c.968-1.053,1.436-1.609,1.887-2.142s.885-1.053,1.23-1.412a3.478,3.478,0,0,1,2.561-.852,6.31,6.31,0,0,1,3.283.892c2.777,1.779,5.636,3.613,8.758,5.685a5.107,5.107,0,0,1,1.358,7.126c-2.295,3.48-4.968,5.6-8.166,6.329a13.379,13.379,0,0,1-2.945.309c-5.264,0-13.818-2.584-25-13.767C.736,23.992.624,13.93,1.462,10.232,2.179,7.05,4.29,4.379,7.582,2.21a5.321,5.321,0,0,1,3.086-1.038Z" transform="translate(0 0.485)" fill="#bfbfbf" stroke="#bfbfbf" stroke-width="2.344" fill-rule="evenodd"/>
    <rect id="사각형_34" data-name="사각형 34" width="21.01" height="3.503" rx="0.781" transform="translate(35.306 0.781)" fill="#bfbfbf" stroke="#bfbfbf" stroke-width="0.5"/>
    <rect id="사각형_35" data-name="사각형 35" width="24.512" height="3.503" rx="0.781" transform="translate(33.555 13.037)" fill="#bfbfbf" stroke="#bfbfbf" stroke-width="0.5"/>
  </g>
</svg>
