<svg xmlns="http://www.w3.org/2000/svg" width="62" height="54.247" viewBox="0 0 62 54.247">
  <g id="icoChatbotChatD" transform="translate(0)">
    <path id="패스_19" data-name="패스 19" d="M37.772,31.171l-.028-.009a1.54,1.54,0,0,0-1.716.339c-.111.111.072-.077-.113.107a11.921,11.921,0,0,1-3.847,2.583,11.72,11.72,0,0,1-4.511.895H23.966v0a1.537,1.537,0,0,0-1.1.467L15.1,43.493l.068-6.83A1.542,1.542,0,0,0,13.8,35.027l-.037,0A11.72,11.72,0,0,1,9.639,33.8a12.026,12.026,0,0,1-5.69-6.322,11.83,11.83,0,0,1,.12-8.734A12,12,0,0,1,10.5,12.313a11.719,11.719,0,0,1,4.511-.895h1.057v-.007a1.585,1.585,0,0,0-.041-3.168H15.008A14.892,14.892,0,0,0,9.281,9.387a15.1,15.1,0,0,0-8.138,8.141A14.877,14.877,0,0,0,1,28.6a15.073,15.073,0,0,0,11,9.346l-.066,6.568a2.749,2.749,0,0,0,1,2.146,2.786,2.786,0,0,0,2.288.566,2.691,2.691,0,0,0,.766-.277l0-.006,0,0a2.775,2.775,0,0,0,.648-.491l8.014-8.195H27.56a14.84,14.84,0,0,0,5.723-1.144,15.1,15.1,0,0,0,4.876-3.264l0,0,.166-.166a1.537,1.537,0,0,0-.55-2.509m1.985-3.433A1.642,1.642,0,1,0,41.4,29.383a1.642,1.642,0,0,0-1.642-1.642" transform="translate(0 6.964)" fill="#fff" fill-rule="evenodd"/>
    <path id="패스_20" data-name="패스 20" d="M48.7,4.193A13.3,13.3,0,0,0,39.065,0H24.643a13.308,13.308,0,0,0-9.636,4.193,14.659,14.659,0,0,0,0,20.15,13.305,13.305,0,0,0,9.636,4.193H29.49L39,38.711l-.1-10.073,1.6-.177a13.475,13.475,0,0,0,8.7-4.671,14.674,14.674,0,0,0-.507-19.6" transform="translate(9.291)" fill="#fff" fill-rule="evenodd"/>
    <circle id="타원_3" data-name="타원 3" cx="1.845" cy="1.845" r="1.845" transform="translate(30.772 12.851)" fill="#1a6eca"/>
    <circle id="타원_4" data-name="타원 4" cx="1.845" cy="1.845" r="1.845" transform="translate(40.343 12.851)" fill="#1a6eca"/>
    <circle id="타원_5" data-name="타원 5" cx="1.845" cy="1.845" r="1.845" transform="translate(49.913 12.851)" fill="#1a6eca"/>
  </g>
</svg>
